<?xml version="1.0" standalone="no"?>
<!DOCTYPE svg PUBLIC "-//W3C//DTD SVG 20010904//EN"
 "http://www.w3.org/TR/2001/REC-SVG-20010904/DTD/svg10.dtd">
<svg version="1.0" xmlns="http://www.w3.org/2000/svg"
 width="512.000000pt" height="512.000000pt" viewBox="0 0 512.000000 512.000000"
 preserveAspectRatio="xMidYMid meet">

<g transform="translate(0.000000,512.000000) scale(0.100000,-0.100000)"
fill="#000000" stroke="none">
<path d="M924 5109 c-49 -14 -57 -30 -52 -110 3 -65 6 -74 36 -100 36 -32 70
-36 134 -17 53 16 78 49 78 105 0 61 -24 109 -62 122 -36 13 -90 13 -134 0z
m130 -42 c23 -17 34 -98 15 -114 -39 -30 -55 -25 -93 29 -20 29 -36 63 -36 76
0 20 5 22 48 22 27 0 56 -6 66 -13z m-82 -124 c8 -9 6 -13 -4 -13 -27 0 -48
25 -55 65 l-6 40 28 -40 c15 -22 32 -46 37 -52z"/>
<path d="M2032 5040 c-51 -22 -112 -74 -122 -105 -15 -45 -5 -61 56 -91 61
-30 123 -34 160 -9 57 37 84 154 44 190 -23 21 -104 30 -138 15z m98 -40 c0
-13 -60 -60 -84 -66 -13 -3 -40 -4 -60 -2 l-37 3 48 37 c26 20 59 38 73 40 30
4 60 -2 60 -12z m6 -95 c-22 -33 -55 -40 -118 -24 l-53 13 53 7 c38 5 65 16
90 37 34 27 37 28 40 10 2 -10 -4 -30 -12 -43z"/>
<path d="M3514 4942 c-17 -9 -44 -27 -60 -40 -16 -12 -58 -42 -94 -65 -81 -54
-107 -103 -144 -269 -31 -141 -31 -143 -6 -168 18 -18 29 -19 103 -14 81 6 83
6 152 -31 77 -42 129 -48 170 -21 63 41 75 113 51 311 -19 155 -46 267 -71
295 -22 24 -59 25 -101 2z m74 -69 c19 -64 52 -263 58 -348 4 -65 2 -86 -13
-115 -26 -50 -56 -50 -146 -1 -42 24 -87 41 -105 41 l-32 0 0 62 c0 182 64
330 165 382 46 24 61 20 73 -21z m-250 -167 c-16 -50 -30 -118 -34 -170 -6
-77 -9 -86 -27 -86 -18 0 -19 5 -13 71 10 95 38 200 65 238 12 17 26 31 30 31
4 0 -5 -38 -21 -84z"/>
<path d="M2895 4888 c-33 -10 -154 -48 -270 -85 -257 -80 -319 -108 -323 -144
-4 -38 33 -77 124 -128 44 -24 114 -66 158 -94 43 -27 97 -57 120 -68 70 -30
227 -69 283 -69 44 0 55 4 72 26 26 33 27 74 5 215 -9 57 -17 157 -18 221 -2
78 -7 122 -15 132 -17 20 -60 19 -136 -6z m106 -98 c4 -36 10 -125 14 -198 l7
-134 -24 7 c-119 35 -544 223 -531 236 29 27 471 161 513 156 11 -2 17 -20 21
-67z m-509 -141 c61 -42 419 -216 491 -239 38 -12 49 -36 22 -46 -9 -4 -71 6
-138 20 -95 21 -137 36 -192 68 -38 23 -119 70 -180 105 -145 84 -147 86 -104
112 19 12 35 21 37 21 2 0 31 -19 64 -41z"/>
<path d="M4717 4822 c-25 -26 -44 -60 -59 -107 l-23 -70 -79 -47 c-44 -27 -82
-48 -85 -48 -3 0 -4 52 -3 115 2 64 1 124 -3 133 -12 32 -23 -9 -31 -113 l-7
-100 -65 -65 c-84 -85 -95 -111 -82 -194 14 -86 3 -113 -47 -121 -21 -4 -83
-20 -138 -36 -63 -19 -165 -37 -275 -50 -140 -17 -206 -30 -330 -67 -140 -42
-164 -47 -250 -46 -85 1 -102 4 -160 32 -36 18 -72 32 -81 32 -9 0 -36 9 -60
19 -24 11 -66 23 -93 27 -38 5 -59 16 -91 45 -53 49 -81 59 -167 59 -59 0 -79
5 -116 26 -40 24 -52 26 -108 21 -54 -5 -71 -3 -116 18 -48 22 -66 25 -188 25
-148 0 -159 4 -273 73 -32 20 -77 39 -99 42 -30 5 -56 21 -99 61 -70 64 -116
89 -194 103 -144 27 -231 11 -415 -74 -162 -75 -182 -81 -285 -94 -105 -13
-168 -33 -237 -75 -86 -51 -154 -114 -200 -184 -23 -35 -72 -91 -109 -124 -99
-88 -127 -136 -140 -241 -9 -78 -9 -90 10 -132 15 -33 33 -53 70 -76 l50 -31
0 -112 c0 -127 12 -201 34 -224 23 -22 42 -2 59 61 l13 52 5 -55 c6 -65 26
-73 51 -21 l16 35 7 -50 c13 -92 39 -129 70 -98 8 8 18 34 22 59 8 57 19 50
27 -15 3 -28 9 -55 12 -60 13 -21 45 11 58 57 l14 47 7 -39 c10 -51 37 -96 55
-93 15 3 24 16 45 68 l14 35 1 -37 c1 -52 22 -49 54 10 l27 47 0 -60 c0 -74
17 -110 50 -110 20 0 30 10 50 50 18 37 25 45 28 30 7 -45 11 -49 32 -30 11
10 20 28 21 39 0 13 6 5 16 -21 12 -34 20 -43 38 -43 13 0 31 10 39 21 14 21
14 21 18 -7 5 -43 35 -44 53 -2 13 30 14 31 15 8 1 -53 14 -71 79 -114 78 -52
110 -101 118 -179 l5 -54 -109 5 c-179 7 -317 -37 -483 -155 -105 -75 -133
-104 -128 -135 5 -38 56 -34 304 26 126 30 256 59 289 66 33 6 71 13 84 16 21
4 23 2 17 -18 -3 -13 -11 -54 -16 -93 -20 -138 -19 -133 -39 -128 -20 5 -51
-21 -51 -43 0 -12 -6 -11 -30 6 -43 31 -63 20 -58 -30 l3 -39 -28 27 c-38 36
-61 22 -65 -42 l-3 -47 -29 31 c-39 42 -54 35 -58 -25 l-3 -48 -30 32 c-32 35
-48 36 -64 4 -11 -21 -11 -21 -39 4 -15 13 -33 22 -40 20 -6 -2 -13 -26 -16
-53 l-5 -48 -18 27 c-9 15 -26 27 -37 27 -19 0 -25 -13 -32 -70 -4 -25 -4 -25
-21 8 -25 45 -54 43 -63 -6 l-7 -37 -12 34 c-6 19 -17 37 -24 39 -17 6 -48
-25 -56 -55 l-6 -26 -21 33 c-19 33 -21 33 -34 15 -8 -10 -14 -30 -15 -44 -1
-23 -3 -22 -17 12 -20 50 -49 47 -77 -8 -16 -33 -20 -60 -20 -160 0 -66 3
-134 7 -151 l7 -31 -60 -11 c-77 -14 -131 -40 -146 -71 -25 -51 18 -94 115
-114 59 -12 65 -16 107 -69 28 -36 55 -60 77 -66 52 -17 337 -45 388 -39 25 3
95 21 155 40 61 19 153 44 205 57 52 12 120 35 150 50 30 16 118 48 195 71
129 39 148 42 245 41 310 -3 470 -7 470 -11 0 -11 -107 -297 -141 -376 -22
-49 -39 -98 -39 -108 0 -40 31 -29 99 34 82 77 167 149 177 149 4 0 17 -8 28
-18 29 -25 165 -109 255 -157 99 -52 106 -70 94 -245 l-8 -124 -45 -34 c-25
-19 -79 -65 -120 -103 -59 -55 -88 -73 -140 -91 -59 -19 -130 -71 -117 -84 3
-3 23 6 45 21 23 15 56 30 74 35 18 4 41 11 50 15 49 20 -3 -50 -78 -106 -30
-22 -54 -46 -54 -54 0 -10 24 2 69 35 51 37 83 71 125 135 54 79 101 126 154
154 29 15 28 3 -4 -56 -24 -44 -25 -54 -19 -128 3 -44 11 -108 16 -142 11 -64
8 -78 -31 -140 -19 -30 -5 -41 21 -17 53 48 56 73 29 240 -13 79 -13 82 14
150 37 93 233 473 259 502 21 22 305 122 348 122 21 0 108 -41 209 -100 107
-63 92 -67 242 75 72 70 152 138 177 153 79 45 111 73 173 154 44 56 67 78 83
78 12 0 76 -25 141 -56 226 -107 259 -122 284 -129 14 -4 41 -19 60 -32 19
-13 67 -33 105 -44 106 -32 145 -59 182 -126 17 -32 41 -90 52 -130 23 -78 41
-102 41 -55 0 37 -33 133 -61 179 l-21 34 37 -7 c54 -10 40 5 -65 67 -81 48
-88 54 -68 62 13 5 69 8 126 8 84 -1 102 2 102 14 0 8 -6 15 -12 15 -7 0 -41
5 -76 10 -47 6 -77 5 -118 -6 -77 -20 -121 -17 -180 10 -57 26 -98 72 -144
157 -44 84 -49 139 -16 216 31 74 32 94 8 116 -10 9 -85 39 -167 67 -151 52
-252 103 -280 143 -8 12 -15 38 -15 58 0 57 36 162 66 190 14 13 50 57 81 97
30 39 67 79 82 87 46 23 501 191 555 204 27 7 68 23 92 37 23 14 70 29 104 35
35 5 77 17 94 26 39 20 39 20 32 31 -3 5 -27 4 -58 -4 -29 -8 -74 -13 -100
-13 -45 2 -48 4 -48 30 0 38 16 76 46 112 30 35 25 46 -11 23 -33 -22 -65 -74
-65 -106 0 -14 -9 -40 -20 -58 l-21 -34 -67 7 c-103 9 -162 25 -225 58 -65 34
-82 58 -90 134 -11 101 -47 144 -187 227 -99 59 -258 203 -299 270 l-33 56 22
98 c39 169 115 295 299 494 44 49 84 100 87 114 4 14 2 57 -5 94 -7 44 -8 78
-2 93 10 26 60 59 161 103 36 16 94 46 130 66 35 21 80 43 100 50 125 41 159
78 47 51 -34 -8 -74 -17 -89 -20 l-27 -5 24 63 c14 35 39 77 55 94 17 17 30
34 30 38 0 15 -18 5 -53 -31z m-3281 -326 c28 -13 76 -46 106 -74 36 -32 74
-56 109 -67 30 -9 86 -34 124 -55 100 -54 143 -64 285 -64 99 -1 131 -5 155
-18 75 -42 72 -42 131 -28 55 13 57 13 108 -15 45 -26 60 -29 129 -28 76 1 79
1 120 -35 l42 -37 -65 -1 c-71 -1 -116 -19 -147 -58 -14 -17 -24 -22 -34 -15
-8 5 -38 9 -67 9 -47 0 -58 -4 -85 -31 -29 -29 -33 -30 -69 -20 -43 13 -107 1
-128 -24 -11 -13 -17 -10 -47 25 -39 46 -95 66 -137 50 -25 -9 -26 -8 -26 25
0 45 -46 98 -105 121 -43 16 -73 15 -132 -2 -17 -5 -23 -2 -23 9 0 23 -64 75
-110 88 -38 12 -68 8 -127 -17 -6 -3 -14 4 -18 15 -7 22 -79 61 -114 61 -52 0
-101 -50 -101 -105 0 -18 -4 -22 -19 -18 -74 19 -183 -144 -185 -277 -2 -134
36 -188 168 -242 44 -18 110 -52 146 -77 100 -68 159 -101 183 -101 45 -1 115
-52 180 -131 45 -56 46 -64 7 -44 -16 8 -39 15 -52 15 -35 0 -54 16 -41 32 15
18 20 60 8 64 -5 2 -23 -15 -40 -36 -16 -22 -33 -39 -38 -40 -4 0 -25 11 -46
25 -22 13 -52 27 -68 31 -15 4 -59 21 -98 40 -38 18 -82 36 -97 39 -16 4 -28
13 -28 20 0 12 -70 47 -122 60 -26 7 -27 10 -25 53 1 36 -2 47 -14 50 -11 2
-20 -8 -28 -29 -8 -22 -15 -30 -27 -25 -8 3 -34 6 -57 6 -65 0 -75 12 -45 49
54 63 74 162 35 169 -24 5 -49 -18 -103 -95 l-44 -61 -53 25 c-28 14 -69 28
-89 31 -43 5 -46 14 -18 60 24 38 25 52 6 52 -18 0 -64 -54 -72 -85 -7 -27
-42 -37 -88 -24 -17 5 -51 9 -76 9 -49 0 -130 -32 -130 -51 0 -7 7 -8 17 -4
49 21 159 23 178 3 2 -1 -10 -18 -27 -37 l-30 -34 -129 17 c-71 10 -133 15
-138 11 -22 -13 -44 45 -42 108 3 91 26 132 124 221 48 44 101 101 118 128 44
68 131 143 214 184 53 26 95 38 175 49 128 17 181 35 330 110 64 32 137 61
165 66 78 12 183 2 241 -25z m-55 -265 c16 -16 29 -38 29 -49 0 -18 -6 -19
-67 -15 -85 6 -93 8 -93 30 0 65 79 85 131 34z m209 -37 c35 -24 50 -44 50
-71 l0 -22 -34 20 c-19 11 -60 23 -90 26 -61 6 -71 21 -34 47 29 21 77 20 108
0z m2589 -81 c-30 -32 -64 -71 -77 -87 -32 -42 -81 -55 -210 -56 l-113 0 -111
-57 c-103 -52 -117 -57 -192 -61 -98 -5 -177 15 -227 58 l-34 29 55 1 c30 0
98 12 150 25 220 59 292 74 416 88 101 12 148 22 210 47 75 32 174 69 183 70
2 0 -20 -26 -50 -57z m-2329 -10 c41 -28 51 -46 46 -82 -7 -44 -18 -51 -90
-51 -55 0 -60 2 -92 37 -41 44 -43 65 -8 92 34 26 109 28 144 4z m1089 -81
c51 -25 84 -92 79 -159 -3 -28 -10 -59 -18 -67 -11 -14 -17 -12 -51 18 -21 19
-52 42 -68 51 -24 12 -31 22 -31 44 0 15 -11 49 -24 74 -22 41 -23 46 -8 50
39 10 89 6 121 -11z m-210 -18 c21 -15 60 -85 61 -109 0 -6 -30 -11 -72 -13
-40 -1 -89 -4 -108 -7 -35 -6 -36 -5 -47 37 -11 39 -10 45 10 66 37 40 117 53
156 26z m-675 -61 c28 -27 42 -79 31 -112 -6 -20 -8 -20 -43 -5 -51 21 -69 40
-76 80 -4 19 -11 34 -17 34 -16 0 1 21 24 29 29 11 52 3 81 -26z m1119 -51
c25 -26 27 -33 17 -52 l-12 -22 -27 26 c-15 14 -34 26 -43 26 -14 0 -38 63
-38 100 0 13 60 -32 103 -78z m-700 57 c28 -15 37 -28 37 -56 0 -18 -9 -24
-42 -33 -24 -6 -50 -13 -59 -16 -10 -3 -21 8 -33 32 -17 36 -16 37 5 60 24 26
58 31 92 13z m-162 -68 c16 -16 29 -36 29 -43 0 -8 -20 -20 -45 -27 -26 -7
-55 -25 -68 -41 l-22 -27 -37 20 c-21 10 -38 24 -38 31 0 17 29 68 52 94 32
34 91 30 129 -7z m829 -137 c0 -24 -25 -84 -35 -84 -3 0 -20 17 -38 37 l-34
37 25 49 26 49 28 -31 c15 -17 28 -43 28 -57z m-1001 -40 c26 -21 31 -33 31
-68 0 -24 -2 -45 -5 -48 -8 -7 -95 8 -104 18 -5 5 -11 30 -14 55 -6 41 -4 48
16 57 33 16 43 14 76 -14z m-1467 -47 c56 -22 57 -22 40 -44 -17 -21 -18 -22
-122 -8 -58 8 -113 15 -123 15 -24 0 -13 17 27 41 41 25 106 24 178 -4z m2124
-74 c21 -11 46 -31 57 -45 25 -33 10 -57 -56 -94 -43 -23 -58 -26 -121 -22
-89 4 -128 27 -181 108 l-36 55 23 6 c49 14 54 11 50 -29 -3 -27 1 -42 13 -52
15 -12 19 -11 36 10 10 14 24 40 30 59 l11 34 68 -5 c40 -3 84 -13 106 -25z
m358 11 c16 -42 1 -95 -34 -114 -17 -9 -18 -7 -13 48 7 72 31 107 47 66z
m-2226 -20 c56 -9 26 -27 -32 -20 -72 10 -97 17 -91 26 5 8 47 5 123 -6z
m-646 -40 c3 -2 -8 -29 -27 -59 -18 -31 -39 -75 -46 -100 -7 -25 -17 -45 -20
-45 -4 0 -10 30 -13 68 -4 37 -9 86 -11 110 l-5 43 58 -7 c31 -3 60 -8 64 -10z
m145 -30 c21 -4 41 -8 45 -10 4 -3 -10 -39 -31 -82 -21 -42 -44 -99 -52 -127
-13 -49 -14 -49 -20 -20 -4 17 -7 81 -8 144 -1 94 1 112 13 108 8 -3 32 -9 53
-13z m1787 -10 c17 -16 21 -70 7 -92 -5 -9 -18 -11 -37 -6 -78 18 -101 72 -41
98 42 19 53 19 71 0z m1044 -45 c13 -16 41 -33 62 -39 49 -13 56 -24 26 -39
-59 -32 -76 -114 -46 -221 11 -41 26 -106 34 -144 9 -48 19 -75 34 -87 12 -9
22 -26 22 -37 0 -66 36 -70 43 -4 7 70 18 104 41 135 19 26 21 42 21 161 l0
133 28 -9 c24 -9 27 -15 27 -56 0 -40 -11 -92 -37 -176 -5 -16 -2 -17 28 -11
19 4 46 16 62 27 l27 19 0 -34 c0 -67 -29 -122 -110 -211 -122 -134 -124 -141
-128 -387 l-4 -207 -131 -62 c-267 -126 -470 -193 -777 -255 -175 -35 -175
-35 -299 -23 -80 7 -116 14 -103 19 38 14 57 84 30 107 -31 24 -57 23 -83 -2
-32 -32 -32 -60 0 -92 14 -14 25 -29 25 -34 0 -4 30 -12 68 -16 l67 -8 -122
-7 c-279 -17 -547 -78 -898 -207 -67 -24 -167 -50 -258 -67 -149 -27 -211 -29
-127 -5 25 8 95 36 155 63 61 27 139 60 174 73 58 22 66 23 81 9 23 -21 30
-19 30 8 0 20 20 33 138 89 75 37 164 76 196 88 33 12 64 27 70 34 6 8 28 19
49 26 35 11 40 10 54 -9 18 -26 33 -19 33 17 0 23 8 30 56 51 65 28 154 105
154 132 0 10 6 19 14 19 8 0 44 14 80 31 47 22 66 36 66 50 0 26 -16 24 -123
-11 -51 -16 -104 -32 -118 -34 -15 -3 -53 -25 -86 -50 -33 -24 -76 -49 -96
-57 -34 -12 -37 -11 -56 12 l-21 24 48 43 c64 58 206 127 322 156 52 13 154
29 225 36 153 14 250 37 331 78 33 16 84 37 115 46 67 19 78 30 72 73 -4 26
-12 35 -44 47 -39 16 -192 46 -233 46 -47 0 -97 23 -157 72 -81 64 -123 83
-243 108 -53 11 -108 28 -122 37 -14 10 -56 60 -95 111 -60 80 -83 102 -162
153 -50 32 -95 59 -99 59 -4 0 -8 7 -8 16 0 48 205 -46 312 -142 81 -72 161
-114 232 -121 49 -5 71 1 126 32 24 14 25 13 30 -12 3 -15 16 -34 31 -42 35
-20 80 2 95 47 l10 32 18 -40 c44 -100 194 -141 280 -77 24 18 40 23 72 19 35
-3 44 0 58 19 9 13 16 34 16 48 0 22 1 23 18 9 34 -30 60 -31 88 -3 22 22 25
33 22 78 -2 42 0 51 12 48 39 -11 90 -4 109 13 26 24 43 81 31 110 -6 17 -4
25 12 35 30 18 51 78 44 123 -4 23 -1 48 5 61 12 21 13 21 23 3 6 -10 21 -31
34 -47z m-2586 41 l38 -11 -34 -67 c-18 -37 -46 -101 -62 -142 l-29 -74 -12
54 c-7 30 -16 95 -19 143 -6 71 -4 91 7 98 19 12 66 11 111 -1z m201 -70 c40
0 44 -5 22 -34 -8 -11 -36 -74 -62 -140 l-48 -121 -6 45 c-3 25 -9 97 -13 161
l-6 117 38 -14 c20 -7 54 -13 75 -14z m2277 -9 c0 -26 -38 -71 -61 -71 -21 0
-22 3 -13 48 5 24 13 32 33 35 14 2 29 5 34 6 4 0 7 -7 7 -18z m-2067 -43 c16
-3 15 -8 -14 -48 -19 -25 -47 -71 -65 -103 l-31 -58 -6 56 c-5 52 -1 142 8
172 3 9 14 9 47 -2 24 -8 51 -15 61 -17z m155 -73 c31 -15 33 -18 18 -34 -8
-9 -38 -55 -67 -101 l-51 -85 6 115 c3 63 9 125 12 138 7 23 7 23 28 4 11 -11
36 -27 54 -37z m1022 -15 c0 -35 -9 -42 -49 -34 -35 7 -44 41 -13 50 9 3 24 9
32 14 22 11 30 3 30 -30z m834 -16 c9 -35 -17 -74 -49 -74 -24 0 -24 1 -11 33
8 17 17 40 20 50 8 26 33 21 40 -9z m-1723 -53 l56 -28 -59 -88 c-32 -48 -60
-90 -62 -93 -3 -2 -4 50 -3 117 1 66 4 121 7 121 3 0 30 -13 61 -29z m907 -53
c16 -16 15 -53 -2 -67 -16 -13 -20 -9 -30 32 -10 42 7 60 32 35z m-749 -48
l34 -29 -53 -58 c-30 -32 -56 -60 -58 -63 -7 -8 7 101 18 143 6 20 14 37 18
37 4 -1 22 -14 41 -30z m826 10 c3 -5 1 -10 -4 -10 -6 0 -11 5 -11 10 0 6 2
10 4 10 3 0 8 -4 11 -10z m591 -56 c-7 -18 -46 -19 -46 0 0 7 10 20 23 29 19
13 22 13 25 0 2 -8 1 -21 -2 -29z m-570 -8 c9 -24 -15 -56 -41 -56 -14 0 -25
2 -25 4 0 2 -3 11 -6 19 -7 18 22 47 47 47 11 0 22 -6 25 -14z m444 -45 c0
-23 -26 -35 -48 -22 -13 7 -10 11 14 24 36 20 34 20 34 -2z m1042 -57 c40 -57
39 -139 -2 -220 -16 -32 -39 -70 -50 -84 l-19 -25 5 40 c10 75 35 220 40 236
2 9 -2 22 -11 29 -18 15 -21 74 -2 68 6 -3 24 -22 39 -44z m-2070 -63 c26 -24
45 -48 42 -52 -2 -5 5 -53 16 -108 11 -54 20 -116 20 -136 0 -32 2 -36 15 -25
19 16 19 76 0 159 -17 69 -14 87 6 49 14 -26 16 -38 23 -168 3 -67 8 -95 17
-95 21 0 29 55 19 125 -13 87 -13 86 13 63 30 -28 115 -77 158 -92 18 -6 52
-22 73 -35 l39 -23 -84 -12 c-102 -15 -230 -46 -284 -70 l-40 -18 0 151 c-1
146 -2 153 -29 206 -16 30 -46 82 -69 115 -44 66 -38 63 65 -34z m-117 -229
c-5 -46 -10 -61 -18 -54 -20 17 -169 60 -232 68 l-60 7 61 13 c100 20 238 103
246 148 6 34 8 -129 3 -182z m-415 18 c19 -6 12 -8 -31 -9 -86 -2 -212 -26
-350 -69 -164 -51 -205 -70 -202 -98 2 -18 -5 -23 -33 -29 -20 -3 -38 -4 -40
-2 -9 9 134 110 202 143 109 52 201 73 324 72 58 0 116 -4 130 -8z m2734 -111
c14 -28 14 -33 -1 -56 -14 -21 -14 -26 -2 -34 21 -13 55 -11 96 6 20 8 38 13
41 10 3 -2 -14 -25 -37 -50 -137 -149 -177 -331 -111 -504 39 -100 77 -152
126 -173 21 -9 92 -31 156 -49 l117 -32 -16 -36 c-8 -20 -18 -64 -22 -98 l-6
-62 -105 59 c-154 88 -191 81 -279 -49 -46 -67 -70 -89 -136 -125 -28 -16
-103 -82 -172 -152 -67 -68 -129 -124 -138 -124 -32 0 -55 20 -55 49 0 74 -89
276 -112 253 -7 -7 -6 -16 1 -30 11 -22 81 -213 81 -223 0 -4 -21 5 -47 19
-36 18 -48 31 -49 49 -3 45 -80 187 -134 246 -49 54 -155 126 -207 142 -42 12
-24 -10 37 -44 90 -52 153 -122 215 -241 30 -57 53 -105 51 -107 -1 -2 -18 3
-37 11 -31 12 -46 11 -147 -12 l-114 -25 -86 90 c-81 84 -96 95 -203 146 -107
51 -120 61 -163 116 l-46 61 36 0 c31 0 44 -8 93 -59 47 -49 67 -62 121 -79
93 -28 174 -38 168 -21 -3 8 -47 25 -100 40 -95 25 -168 60 -201 96 -17 20
-16 20 65 26 99 7 166 26 273 77 44 21 127 59 185 85 204 91 271 148 386 323
32 50 62 91 65 92 4 0 9 -9 12 -20 10 -40 80 -38 97 3 7 17 9 10 11 -33 3 -92
10 -115 41 -118 47 -6 53 21 51 235 l-1 191 43 46 c24 26 63 84 86 129 l43 82
7 -47 c4 -26 14 -61 23 -79z m-2366 -186 c50 -67 50 -68 29 -82 -12 -8 -34
-25 -49 -39 -15 -14 -30 -24 -32 -21 -11 10 -19 209 -8 209 5 0 32 -30 60 -67z
m-157 -135 l49 -57 -56 -20 c-30 -12 -59 -19 -63 -16 -5 2 -11 35 -15 72 -4
37 -9 84 -12 103 l-5 35 26 -30 c15 -16 49 -56 76 -87z m-209 -41 c24 -34 47
-68 51 -74 6 -9 -10 -21 -49 -38 -31 -14 -58 -25 -60 -25 -2 0 -4 48 -4 106 0
63 4 103 9 99 6 -3 29 -33 53 -68z m-172 -73 c33 -44 60 -83 60 -87 0 -8 -98
-57 -116 -57 -6 0 -10 41 -10 115 0 63 1 113 3 111 2 -2 31 -39 63 -82z m519
-12 c8 -16 1 -22 -57 -47 -37 -16 -133 -61 -214 -102 -81 -40 -153 -73 -159
-73 -10 0 -48 39 -49 51 0 11 236 117 320 144 47 15 94 30 105 35 31 13 43 11
54 -8z m-714 -87 c32 -47 56 -87 54 -88 -2 -2 -29 -17 -60 -35 l-56 -31 -2
120 c-1 65 0 119 2 119 2 0 30 -38 62 -85z m-151 -111 c20 -26 36 -52 36 -59
0 -13 -71 -35 -111 -35 -21 0 -22 3 -16 68 4 37 7 87 7 112 l0 45 24 -42 c13
-23 40 -63 60 -89z m-194 -77 l19 -31 -47 -18 c-26 -10 -50 -18 -54 -18 -10 0
-10 244 -1 254 4 3 20 -30 35 -74 16 -45 37 -95 48 -113z m-187 -29 c15 -36
27 -69 27 -72 0 -6 -46 -31 -76 -40 -20 -6 -21 -3 -23 128 -1 74 1 147 5 162
6 25 9 19 24 -41 9 -39 28 -100 43 -137z m3902 36 c145 -50 166 -63 147 -91
-6 -10 -40 -5 -147 23 -76 20 -149 43 -162 51 -21 14 -73 89 -73 106 0 4 19
-3 42 -15 24 -12 110 -46 193 -74z m-3159 51 c9 -14 15 -27 13 -28 -2 -2 -38
-16 -79 -32 -41 -15 -110 -45 -152 -66 -70 -35 -230 -89 -264 -89 -9 0 -14 11
-14 29 0 28 3 30 53 36 88 12 157 39 282 108 66 37 125 67 132 67 7 0 20 -11
29 -25z m-543 -202 c-4 -27 -11 -34 -52 -48 -25 -8 -102 -22 -171 -30 -69 -9
-144 -19 -168 -24 -23 -4 -45 -5 -48 0 -5 9 28 15 124 23 46 4 95 20 175 55
106 46 140 60 143 57 1 0 -1 -15 -3 -33z m1711 -214 c6 -99 4 -114 -11 -132
-22 -24 -187 -147 -191 -142 -6 6 131 370 142 377 6 4 20 8 32 8 20 0 21 -7
28 -111z m2200 -67 c-1 -2 -20 8 -42 22 -43 27 -55 59 -45 121 l6 36 42 -88
c23 -48 41 -89 39 -91z m-1757 -85 c33 -18 95 -64 136 -103 l74 -71 -54 -17
c-40 -13 -59 -26 -73 -48 l-18 -30 -27 46 c-15 25 -35 72 -44 104 -10 32 -30
80 -46 105 -15 26 -23 47 -18 47 4 -1 36 -15 70 -33z"/>
<path d="M939 4283 c11 -21 22 -57 26 -80 7 -42 17 -53 30 -33 12 20 -7 91
-32 120 -34 41 -46 37 -24 -7z"/>
<path d="M887 4268 c4 -18 7 -68 6 -110 -3 -80 9 -101 27 -52 16 42 11 112
-10 154 -25 48 -35 51 -23 8z"/>
<path d="M814 4268 c7 -19 24 -79 31 -110 8 -40 25 -34 25 8 0 36 -36 114 -53
114 -5 0 -6 -6 -3 -12z"/>
<path d="M684 4245 c11 -8 28 -15 38 -15 25 0 58 -35 58 -62 0 -42 -49 -128
-100 -178 -59 -57 -63 -72 -18 -59 68 19 145 122 155 208 5 48 4 52 -30 86
-29 29 -42 35 -78 35 -41 -1 -43 -2 -25 -15z"/>
<path d="M595 4171 c-22 -10 -81 -58 -130 -107 -105 -103 -131 -153 -101 -199
47 -71 227 16 315 153 16 26 33 59 36 75 9 36 -11 84 -38 91 -32 8 -38 7 -82
-13z"/>
<path d="M2015 4133 c-21 -21 -14 -37 18 -41 23 -3 27 0 27 21 0 31 -24 41
-45 20z"/>
<path d="M2132 4078 c-27 -27 -6 -68 35 -68 29 0 48 33 33 60 -12 22 -49 27
-68 8z"/>
<path d="M805 4023 c-11 -21 -48 -67 -82 -104 -35 -36 -60 -69 -57 -72 11 -11
80 31 109 65 31 36 75 128 68 141 -9 14 -19 6 -38 -30z"/>
<path d="M3246 3301 c-4 -5 -9 -36 -12 -69 -5 -47 -11 -61 -25 -65 -11 -3 -19
-14 -19 -25 0 -14 -8 -22 -22 -24 -23 -3 -23 -5 -29 -203 -4 -110 -10 -228
-14 -262 -7 -55 -6 -63 10 -69 29 -12 49 10 65 72 l15 59 5 -45 c5 -44 6 -45
39 -45 34 0 35 2 47 50 8 35 12 42 13 23 0 -15 6 -30 12 -34 47 -29 29 160
-33 340 -40 117 -41 123 -35 213 6 84 0 112 -17 84z m51 -483 c-3 -7 -5 -2 -5
12 0 14 2 19 5 13 2 -7 2 -19 0 -25z m10 -75 c-3 -10 -5 -2 -5 17 0 19 2 27 5
18 2 -10 2 -26 0 -35z"/>
<path d="M2825 2935 c-14 -13 -25 -29 -25 -34 0 -28 22 -59 50 -71 28 -12 34
-11 58 7 39 29 41 74 6 102 -35 27 -59 27 -89 -4z"/>
<path d="M2666 2824 c-31 -31 -12 -75 40 -95 64 -24 99 39 48 86 -31 29 -66
32 -88 9z"/>
<path d="M2937 2772 c-22 -24 -21 -55 1 -75 24 -22 55 -21 75 1 21 23 21 41 1
70 -18 27 -55 29 -77 4z"/>
<path d="M2918 2425 c-9 -21 -8 -28 7 -45 40 -44 104 -3 76 49 -17 31 -68 29
-83 -4z"/>
<path d="M2847 2393 c-22 -21 0 -63 33 -63 18 0 32 40 19 56 -12 15 -41 19
-52 7z"/>
<path d="M2616 2348 c-37 -32 -43 -76 -16 -111 44 -56 130 -18 130 58 0 68
-64 97 -114 53z"/>
<path d="M3022 2358 c-31 -31 5 -97 47 -83 24 7 38 51 24 74 -13 20 -54 26
-71 9z"/>
<path d="M2414 2307 c-65 -60 -62 -138 7 -159 52 -15 97 4 115 48 19 45 17 73
-6 112 -27 44 -67 44 -116 -1z"/>
<path d="M2156 2284 c-8 -21 -8 -20 10 -38 19 -20 29 -20 48 0 12 12 13 20 6
35 -13 23 -55 25 -64 3z"/>
<path d="M2735 2200 c-15 -17 -16 -24 -7 -45 15 -32 37 -41 68 -27 46 22 25
92 -29 92 -8 0 -22 -9 -32 -20z"/>
<path d="M2209 2171 c-35 -36 -41 -97 -11 -124 39 -35 105 -11 125 45 9 25
-12 86 -33 98 -30 16 -50 12 -81 -19z"/>
<path d="M2589 2116 c-27 -13 -37 -50 -19 -72 15 -17 71 -19 88 -2 40 40 -16
101 -69 74z m41 -41 c0 -8 -7 -15 -15 -15 -8 0 -15 7 -15 15 0 8 7 15 15 15 8
0 15 -7 15 -15z"/>
<path d="M1923 2108 c-21 -27 -23 -51 -7 -69 25 -28 70 -24 90 6 15 23 15 27
0 50 -18 27 -66 35 -83 13z m57 -38 c0 -15 -7 -20 -25 -20 -24 0 -34 18 -18
33 15 15 43 7 43 -13z"/>
<path d="M2440 2097 c-31 -16 -40 -76 -15 -101 39 -39 105 -3 105 57 0 54 -35
72 -90 44z"/>
<path d="M3180 1735 c0 -2 42 -25 94 -51 99 -49 194 -124 259 -205 36 -46 67
-63 67 -38 0 23 -77 112 -133 155 -87 66 -287 163 -287 139z"/>
<path d="M3310 1570 c0 -15 132 -210 142 -210 19 0 3 36 -54 121 -59 87 -88
116 -88 89z"/>
<path d="M2958 1468 c52 -30 122 -80 158 -112 74 -66 89 -52 22 20 -29 32 -69
59 -133 89 -133 63 -153 64 -47 3z"/>
<path d="M273 2928 c-13 -6 -23 -14 -23 -18 0 -3 -25 -35 -55 -70 -68 -78 -70
-102 -14 -130 100 -52 185 -33 221 47 49 111 -32 218 -129 171z m75 -34 c28
-19 28 -35 0 -62 -24 -22 -124 -72 -145 -72 -46 0 67 143 117 149 3 1 16 -6
28 -15z m12 -114 c0 -25 -41 -50 -82 -50 l-42 0 55 29 c62 33 69 35 69 21z"/>
<path d="M1036 1165 c-33 -13 -75 -39 -95 -58 -20 -18 -56 -49 -81 -67 -132
-98 -147 -134 -80 -194 50 -45 230 -136 269 -136 40 0 86 57 146 180 76 158
71 240 -18 281 -54 24 -70 24 -141 -6z m139 -52 c38 -38 31 -87 -29 -196 l-46
-85 -38 14 c-58 23 -131 81 -138 110 -8 30 18 94 50 122 30 28 105 60 142 61
21 1 40 -8 59 -26z m-293 -135 c-6 -57 71 -144 153 -173 36 -12 37 -13 18 -24
-18 -9 -39 -1 -134 47 -138 69 -146 85 -78 144 24 21 44 38 44 38 1 0 -1 -15
-3 -32z"/>
<path d="M1624 1138 c-79 -69 -324 -642 -324 -757 0 -46 27 -78 74 -86 69 -13
265 54 599 205 152 69 177 91 177 152 0 59 -20 94 -113 200 -46 53 -99 116
-116 140 -48 67 -196 178 -237 178 -13 0 -40 -14 -60 -32z m51 -45 c-18 -27
-115 -306 -140 -405 -9 -32 -29 -91 -45 -132 -21 -51 -30 -92 -30 -130 0 -51
-2 -56 -25 -62 -89 -22 -75 63 70 410 95 229 157 346 182 346 3 0 -3 -12 -12
-27z m129 -45 c34 -35 76 -88 93 -118 17 -30 64 -91 103 -135 83 -92 104 -128
96 -161 -8 -30 -41 -47 -253 -130 -273 -106 -335 -127 -345 -112 -16 25 -17
19 92 318 23 63 60 174 81 245 49 162 46 155 60 155 6 0 39 -28 73 -62z"/>
<path d="M3488 899 c-43 -11 -82 -43 -278 -228 -343 -323 -350 -330 -350 -366
0 -35 34 -88 96 -147 78 -75 242 -130 446 -150 101 -10 142 -9 285 6 221 23
261 32 295 66 37 38 37 91 -2 234 -16 60 -32 143 -35 185 -11 139 -15 143
-127 116 -68 -17 -70 -17 -96 2 -34 25 -66 80 -93 161 -34 102 -76 138 -141
121z m59 -71 c6 -7 23 -44 38 -83 40 -103 61 -141 91 -164 42 -33 87 -41 146
-26 28 8 54 12 58 10 4 -2 10 -37 13 -77 3 -40 17 -110 30 -155 l24 -83 -61
-34 c-83 -46 -114 -51 -183 -30 -46 13 -102 17 -263 19 -186 2 -214 4 -305 28
-99 26 -215 74 -215 88 0 16 460 451 511 484 56 36 99 44 116 23z m-501 -618
c128 -47 212 -61 434 -72 369 -17 357 -18 448 42 l32 22 0 -36 c0 -26 -6 -39
-22 -50 -14 -8 -103 -23 -222 -36 -219 -24 -311 -20 -486 22 -143 34 -266 104
-302 171 -9 17 -3 15 24 -9 20 -18 62 -42 94 -54z"/>
<path d="M4395 868 c-41 -40 -46 -52 -85 -188 -50 -175 -93 -419 -84 -473 10
-65 32 -71 164 -47 128 23 142 31 175 105 88 196 87 329 -4 530 -27 60 -79
115 -107 115 -8 0 -35 -19 -59 -42z m75 -117 c30 -92 32 -106 28 -193 -6 -107
-35 -188 -85 -234 -33 -31 -122 -78 -131 -69 -17 16 36 331 83 491 14 49 48
104 64 104 4 0 22 -45 41 -99z m77 -41 c24 -64 28 -90 28 -175 0 -93 -3 -106
-39 -190 -21 -49 -41 -93 -45 -97 -4 -5 -34 -13 -66 -19 -33 -5 -69 -12 -80
-15 -11 -3 0 7 25 22 94 56 129 105 155 216 28 118 15 248 -35 351 l-21 42 25
-30 c14 -16 38 -64 53 -105z"/>
</g>
</svg>